<svg xmlns="http://www.w3.org/2000/svg" width="30.557" height="30.594" viewBox="0 0 30.557 30.594">
  <g id="Groupe_3" data-name="Groupe 3" transform="translate(-157.72 -757.353) rotate(48)">
    <path id="Subtraction_6" d="M12.6,24.6a11.4,11.4,0,0,1-7.8-3.2A11.016,11.016,0,0,1,3.9,6.9C5.4,5,6.6,6.6,5.4,8.1a9.063,9.063,0,0,0-1.8,5.5A9,9,0,1,0,15.5,5.1L16,3.2a10.69,10.69,0,0,1,5.4,3.9,10.961,10.961,0,0,1,2.1,6.5,11.4,11.4,0,0,1-3.2,7.8A10.573,10.573,0,0,1,12.6,24.6Z" transform="translate(677.4 374.541)" fill="#111"/>
    <path id="Tracé_3" data-name="Tracé 3" d="M703.6,378.189l3.529-3.529,3.529,3.529" transform="translate(408.93 -371.309) rotate(42)" fill="none" stroke="#111" stroke-width="2"/>
  </g>
</svg>
